<svg xmlns="http://www.w3.org/2000/svg" xmlns:svg="http://www.w3.org/2000/svg" xmlns:xlink="http://www.w3.org/1999/xlink" id="svg2" width="512" height="512" version="1.1" viewBox="0 0 512 512"><defs id="defs4"><linearGradient id="linearGradient4682"><stop style="stop-color:#ff6262;stop-opacity:1" id="stop4678" offset="0"/><stop style="stop-color:#ff7c7c;stop-opacity:1" id="stop4680" offset="1"/></linearGradient><linearGradient id="linearGradient1252"><stop style="stop-color:#5db3f9;stop-opacity:1" id="stop1248" offset="0"/><stop style="stop-color:#2c8de2;stop-opacity:1" id="stop1250" offset="1"/></linearGradient><linearGradient id="linearGradient4371" x1="239.062" x2="239.062" y1="30" y2="451.875" gradientTransform="translate(1e-6,572.36224)" gradientUnits="userSpaceOnUse" xlink:href="#linearGradient1252"/><filter style="color-interpolation-filters:sRGB" id="filter4456"><feFlood id="feFlood4458" flood-color="#000" flood-opacity=".2" result="flood"/><feComposite id="feComposite4460" in="flood" in2="SourceGraphic" operator="in" result="composite1"/><feGaussianBlur id="feGaussianBlur4462" in="composite1" result="blur" stdDeviation="3"/><feOffset id="feOffset4464" dx="0" dy="6" result="offset"/><feComposite id="feComposite4466" in="SourceGraphic" in2="offset" operator="over" result="composite2"/></filter><linearGradient id="linearGradient4660" x1="256" x2="256" y1="16" y2="496" gradientUnits="userSpaceOnUse" xlink:href="#linearGradient1252"/><linearGradient id="linearGradient4676" x1="256" x2="256" y1="588.362" y2="1068.362" gradientUnits="userSpaceOnUse" xlink:href="#linearGradient1252"/><linearGradient id="linearGradient4684" x1="392" x2="392" y1="448" y2="344" gradientUnits="userSpaceOnUse" xlink:href="#linearGradient4682"/></defs><metadata id="metadata7"/><g id="layer1" transform="translate(0,-572.36221)"><circle style="opacity:1;fill:#5c5c5c;fill-opacity:1;stroke:none;stroke-width:1.99999988;stroke-linecap:round;stroke-linejoin:round;stroke-miterlimit:4;stroke-dasharray:none;stroke-dashoffset:0;stroke-opacity:1" id="circle4841" cx="226" cy="796.362" r="0"/><path style="opacity:1;fill:url(#linearGradient4660);fill-opacity:1;stroke:none;stroke-width:1.99999988;stroke-linecap:butt;stroke-linejoin:round;stroke-miterlimit:4;stroke-dasharray:none;stroke-opacity:1;filter:url(#filter4456)" id="path4555" d="M 256 16 A 240 240.00002 0 0 0 16 256 A 240 240.00002 0 0 0 256 496 A 240 240.00002 0 0 0 370.76367 466.76367 L 310.33594 406.33594 A 160 160 0 0 1 256 416 A 160 160 0 0 1 96 256 A 160 160 0 0 1 256 96 A 160 160 0 0 1 416 256 A 160 160 0 0 1 406.29492 310.29492 L 466.59961 370.59961 A 240 240.00002 0 0 0 496 256 A 240 240.00002 0 0 0 256 16 z" transform="translate(0,572.36221)"/><path style="opacity:1;fill:url(#linearGradient4684);fill-opacity:1;stroke:none;stroke-width:2;stroke-linecap:butt;stroke-linejoin:round;stroke-miterlimit:4;stroke-dasharray:none;stroke-opacity:1;filter:url(#filter4456)" id="rect4560-3" d="M 390.44336 342.44336 A 160 160 0 0 1 342.55664 390.55664 L 399.78906 447.78906 A 240 240.00002 0 0 0 447.82812 399.82812 L 390.44336 342.44336 z" transform="translate(0,572.36221)"/><circle style="opacity:1;fill:url(#linearGradient4676);fill-opacity:1;stroke:none;stroke-width:2;stroke-linecap:butt;stroke-linejoin:round;stroke-miterlimit:4;stroke-dasharray:none;stroke-opacity:1;filter:url(#filter4456)" id="path4652" cx="256" cy="828.362" r="128"/></g></svg>